# xmcd
#
# Track frame offsets: 
#        150
#        14758
#        36676
#        49571
#        70090
#        83203
#        98919
#        114311
#        136905
#        155716
#        171572
#        187690
#        202989
#
# Disc length: 3063 seconds
#
# Revision: 0
# Processed by: cddbd v1.5.2PL0 Copyright (c) Steve Scherf et al.
# Submitted via: ExactAudioCopy v1.1
#
DISCID=b10bf50d
DTITLE=Arthur Adams - Look What The Blues Has Done For Me - An Introdu
DTITLE=ction To Arthur Adams [CD2)
DYEAR=2017
DGENRE=Blues
TTITLE0=I'll Never Be The Same
TTITLE1=I Gotta Help My People
TTITLE2=Do What Cha Doin'
TTITLE3=The Blues
TTITLE4=We've Got An Understanding
TTITLE5=Keep On Dancing
TTITLE6=Beale Street
TTITLE7=Shake A loose
TTITLE8=Music Feels Good To Me
TTITLE9=You Give Me Such a Good Feelin'
TTITLE10=Put Your Hand In Mine
TTITLE11=Let's Dance
TTITLE12=You Got The Floor
EXTD=
EXTT0=
EXTT1=
EXTT2=
EXTT3=
EXTT4=
EXTT5=
EXTT6=
EXTT7=
EXTT8=
EXTT9=
EXTT10=
EXTT11=
EXTT12=
PLAYORDER=
